<?xml version="1.0" encoding="UTF-8"?>
<svg version="1.1" xmlns="http://www.w3.org/2000/svg" width="67" height="67">
<path d="M0 0 C6.8745171 6.04897466 8.35998847 14.15751323 8.96875 22.88671875 C9.01800494 27.79374247 8.92907854 33.62066858 5.71655273 37.58300781 C3.6415903 39.29586259 2.42752982 39.48540505 -0.23046875 39.73046875 C-1.03291016 39.81103516 -1.83535156 39.89160156 -2.66210938 39.97460938 C-3.49548828 40.04486328 -4.32886719 40.11511719 -5.1875 40.1875 C-6.4549707 40.3102832 -6.4549707 40.3102832 -7.74804688 40.43554688 C-9.83092268 40.63559709 -11.91535003 40.81937284 -14 41 C-16.7025419 34.91928072 -17.32650252 29.51025584 -17.375 22.9375 C-17.39530273 21.80465576 -17.39530273 21.80465576 -17.41601562 20.64892578 C-17.35642541 13.03296573 -15.32868887 6.67247525 -10 1 C-6.69733481 -0.6513326 -3.52516421 -0.91077663 0 0 Z " fill="#FFFCF4" transform="translate(40,1)"/>
<path d="M0 0 C1.18828946 4.60462166 1.71619367 9.28505832 1 14 C-0.875 17.0625 -0.875 17.0625 -4 19 C-8.04488282 19.66341231 -12.24989576 20.23652963 -15.73046875 17.77734375 C-17.31855064 15.5540291 -17.7151679 13.7471226 -18.1875 11.0625 C-18.34605469 10.20785156 -18.50460938 9.35320313 -18.66796875 8.47265625 C-19 6 -19 6 -19 2 C-16.95928485 1.66089006 -14.91737379 1.32897296 -12.875 1 C-11.73804688 0.814375 -10.60109375 0.62875 -9.4296875 0.4375 C-6.23862398 0.03043951 -3.21182209 -0.07809902 0 0 Z " fill="#FFFCF4" transform="translate(46,47)"/>
</svg>
