<?xml version="1.0" encoding="UTF-8"?>
<svg version="1.1" xmlns="http://www.w3.org/2000/svg" width="67" height="67">
<path d="M0 0 C4.45382753 2.38227984 6.37654043 5.77160433 8.2109375 10.3203125 C10.87138626 19.35530186 10.45369633 28.96006615 8 38 C7.34 38.99 6.68 39.98 6 41 C3.05922027 40.77217201 0.12456885 40.51883925 -2.8125 40.25 C-3.64587891 40.188125 -4.47925781 40.12625 -5.33789062 40.0625 C-11.50159015 39.46840848 -11.50159015 39.46840848 -14.01171875 37.109375 C-17.74845934 29.13372315 -17.09813787 18.0458571 -14.3125 9.8125 C-11.28681872 2.78784137 -8.1665772 -1.31248562 0 0 Z " fill="#FFFCF3" transform="translate(39,1)"/>
<path d="M0 0 C2.08607309 0.06482148 4.17006513 0.20244935 6.25 0.375 C7.38953125 0.46523438 8.5290625 0.55546875 9.703125 0.6484375 C12.52748261 0.94961307 15.22978229 1.38555321 18 2 C18.33252584 8.207149 17.50054525 12.29875684 15 18 C13.27665979 19.72334021 11.0331379 19.21271834 8.6875 19.25 C7.72199219 19.27578125 6.75648437 19.3015625 5.76171875 19.328125 C2.56430665 18.94823445 1.24889998 18.27999077 -1 16 C-2.14691477 10.70654722 -2.09205883 6.35108828 -1 1 C-0.67 0.67 -0.34 0.34 0 0 Z " fill="#FFFCF4" transform="translate(26,47)"/>
</svg>
