<svg width="385" height="385" viewBox="0 0 385 385" fill="none" xmlns="http://www.w3.org/2000/svg">
<path d="M175.425 323.722V211.175C175.425 207.825 174.785 205.385 173.506 203.854C172.866 202.992 172.227 202.466 171.587 202.274C171.054 201.987 169.028 201.317 165.51 200.265C161.246 199.021 159.113 196.484 159.113 192.656C159.113 190.168 160.126 188.302 162.152 187.058C164.284 185.718 167.269 185.048 171.107 185.048H250.747L256.504 185.622C258.317 186.101 259.809 186.962 260.982 188.206C262.155 189.45 262.741 190.934 262.741 192.656C262.741 196.484 260.609 199.021 256.344 200.265C252.826 201.317 250.747 201.987 250.107 202.274C249.574 202.466 248.988 202.992 248.348 203.854C247.069 205.385 246.429 207.825 246.429 211.175V331.617C246.429 339.752 246.643 345.446 247.069 348.7C247.602 351.858 248.615 354.729 250.107 357.313C251.493 359.706 253.039 361.429 254.745 362.481C256.451 363.534 260.334 364.66 265.131 366V384.876H260.982C247.122 384.876 235.608 383.775 226.439 381.574C215.671 378.99 206.236 375.162 198.134 370.09C190.031 365.018 184.274 359.323 180.862 353.007C177.238 346.308 175.425 336.546 175.425 323.722Z" fill="black"/>
<path d="M174.897 0V30C157.489 33.7985 140.651 46.5762 140.651 68.1008V320.698C140.651 330.465 142.135 337.972 145.102 343.217C147.674 347.558 165.475 362.925 173.783 366V385H161.423C155.092 385 149.257 384.548 143.915 383.643C138.772 382.739 131.848 380.93 123.144 378.217C102.373 371.705 83.5797 361.757 66.7649 348.372C49.95 334.987 36.1025 318.979 25.2223 300.349C8.40743 271.227 0 236.77 0 196.977C0 158.45 7.51723 124.264 22.5517 94.4186C37.5861 64.5736 59.1487 41.1499 87.2394 24.1473C103.461 14.199 120.869 7.05426 139.464 2.71318C147.179 0.904393 164.413 0 174.897 0Z" fill="black"/>
<path d="M111.4 261H201.633V285H111.4V261Z" fill="black"/>
<path d="M246.193 114C246.193 130.569 231.231 144 212.773 144C194.316 144 179.353 130.569 179.353 114C179.353 97.4315 194.316 84 212.773 84C231.231 84 246.193 97.4315 246.193 114Z" fill="black"/>
<path d="M368.688 323.674V211.127C368.688 207.777 369.328 205.337 370.607 203.806C371.247 202.944 371.887 202.418 372.526 202.227C373.059 201.939 375.085 201.27 378.603 200.217C382.868 198.973 385 196.437 385 192.608C385 190.12 383.987 188.254 381.962 187.01C379.829 185.67 376.844 185 373.006 185H351L334.5 202.227L319 185H293.366L287.609 185.574C285.797 186.053 284.304 186.914 283.131 188.158C281.959 189.402 281.372 190.886 281.372 192.608C281.372 196.437 283.504 198.973 287.769 200.217C291.287 201.27 293.366 201.939 294.006 202.227C294.539 202.418 295.125 202.944 295.765 203.806C297.044 205.337 297.684 207.777 297.684 211.127V331.569C297.684 339.704 297.471 345.398 297.044 348.652C296.511 351.811 295.498 354.682 294.006 357.266C292.62 359.658 291.074 361.381 289.368 362.434C287.662 363.486 284.411 364.683 279.613 366.022V384.828H283.131C296.991 384.828 308.505 383.728 317.674 381.526C328.442 378.942 337.877 375.114 345.98 370.042C354.082 364.97 359.839 359.275 363.251 352.959C366.876 346.26 368.688 336.498 368.688 323.674Z" fill="black"/>
<path d="M192.721 0V29.5C207.756 30.2235 255.965 32.8295 266.054 37.1705C278.499 39.5 282.398 42.5 295.766 53C302.888 60.7778 312.476 72.5 319.16 87.5C325.844 102.5 328.665 114.134 331.632 124.264C334.006 132.222 336.479 137.558 339.051 140.271C341.82 142.984 345.974 144.341 351.513 144.341C362.591 144.341 368.13 137.468 368.13 123.721V18.1783C368.13 11.6667 366.944 7.05426 364.57 4.34109C362.394 1.44703 358.536 0 352.997 0C347.656 0 343.205 2.26098 339.644 6.78295C334.501 13.1137 331.039 17.0026 329.258 18.4496C327.676 19.7158 325.302 20.3488 322.137 20.3488C318.774 20.3488 314.026 19.0827 307.894 16.5504C245.079 -1 224.47 0.5 192.721 0Z" fill="black"/>
</svg>
